<svg width="23" height="19" xmlns="http://www.w3.org/2000/svg" xmlns:xlink="http://www.w3.org/1999/xlink" xmlns:svgjs="http://svgjs.com/svgjs" viewBox="0 0.073 23 18.854" fill="#5ac8fb"><svg xmlns="http://www.w3.org/2000/svg" width="23" height="19" viewBox="1.028 1.981 21.982 18.019"><path paint-order="stroke fill markers" fill-rule="evenodd" d="M20.415 4.825a4.407 4.407 0 0 0 1.98-2.506 8.79 8.79 0 0 1-2.859 1.098c-.892-.957-1.99-1.436-3.291-1.436-1.246 0-2.309.444-3.187 1.33-.88.887-1.318 1.96-1.318 3.217 0 .338.037.685.111 1.042a12.46 12.46 0 0 1-5.181-1.4 12.79 12.79 0 0 1-4.108-3.358 4.486 4.486 0 0 0-.614 2.294c0 .78.182 1.502.544 2.168.363.667.851 1.206 1.465 1.619a4.436 4.436 0 0 1-2.037-.577v.056c0 1.098.342 2.063 1.026 2.893a4.424 4.424 0 0 0 2.587 1.57c-.39.103-.786.154-1.186.154-.26 0-.544-.023-.85-.07.288.91.818 1.659 1.59 2.245.771.587 1.645.89 2.622.908-1.637 1.295-3.501 1.943-5.593 1.943-.4 0-.763-.019-1.088-.056 2.092 1.36 4.398 2.04 6.918 2.04 1.599 0 3.1-.255 4.505-.766 1.404-.512 2.603-1.197 3.598-2.055a13.719 13.719 0 0 0 2.574-2.964 13.267 13.267 0 0 0 1.61-3.498 13.029 13.029 0 0 0 .517-4.244 9.493 9.493 0 0 0 2.26-2.351c-.866.375-1.73.61-2.595.704z"/></svg></svg>