<svg width="9" height="14" xmlns="http://www.w3.org/2000/svg" xmlns:xlink="http://www.w3.org/1999/xlink" xmlns:svgjs="http://svgjs.com/svgjs" viewBox="0.199 0 8.601 14" fill="#5ac8fb"><svg xmlns="http://www.w3.org/2000/svg" width="9" height="14" viewBox="1.986 1.978 7.982 12.991"><path paint-order="stroke fill markers" fill-rule="evenodd" d="M9.83 8.174L3.44 2.108a.445.445 0 0 0-.63 0l-.687.651a.402.402 0 0 0-.137.3c0 .112.046.212.137.299l5.39 5.116-5.39 5.116a.402.402 0 0 0-.137.3c0 .112.046.212.137.299l.686.65a.444.444 0 0 0 .63 0l6.392-6.066a.402.402 0 0 0 .137-.3.403.403 0 0 0-.137-.299z"/></svg></svg>