<svg width="17" height="17" xmlns="http://www.w3.org/2000/svg" xmlns:xlink="http://www.w3.org/1999/xlink" xmlns:svgjs="http://svgjs.com/svgjs" fill="#fff"><svg xmlns="http://www.w3.org/2000/svg" width="17" height="17" viewBox="2 1.988 16.007 16.007"><path paint-order="stroke fill markers" fill-rule="evenodd" d="M5.001 1.988a2.89 2.89 0 0 0-2.12.88A2.89 2.89 0 0 0 2 4.988v10.005c0 .827.293 1.534.88 2.12a2.89 2.89 0 0 0 2.121.881h5.544v-6.2H8.461V9.376h2.084V7.594c0-1.014.283-1.8.85-2.355.566-.556 1.321-.834 2.266-.834.8 0 1.418.031 1.855.094v2.157l-1.271.01c-.473 0-.79.098-.954.292-.163.195-.245.487-.245.876v1.542h2.387l-.313 2.418h-2.074v6.2h1.96a2.89 2.89 0 0 0 2.12-.88 2.89 2.89 0 0 0 .88-2.121V4.989c0-.827-.293-1.534-.88-2.121a2.891 2.891 0 0 0-2.12-.88H5z"/></svg></svg>