<svg width="17" height="17" xmlns="http://www.w3.org/2000/svg" xmlns:xlink="http://www.w3.org/1999/xlink" xmlns:svgjs="http://svgjs.com/svgjs" fill="#fff"><svg xmlns="http://www.w3.org/2000/svg" width="17" height="17" viewBox="2 1.014 16.007 16.007"><path paint-order="stroke fill markers" fill-rule="evenodd" d="M6.064 13.571c-.083-.083-.153-.094-.208-.03-.063.055-.049.12.041.197.084.083.153.094.209.031.055-.055.042-.121-.042-.198zm-.573-.5c-.062.035-.062.097 0 .188.063.09.121.114.177.073.063-.049.063-.115 0-.198-.056-.09-.114-.112-.177-.063zm-.531-.688c-.07-.02-.115-.014-.136.021-.02.049.004.09.073.125.056.035.1.028.135-.02.021-.05-.003-.09-.072-.126zm.375.313c-.07-.063-.125-.073-.167-.031-.049.035-.042.09.02.166.07.07.126.08.168.032.048-.035.041-.09-.021-.167zm1.23 1.167c-.105-.027-.17-.003-.199.073-.027.077.018.129.136.156.104.042.17.021.198-.062.02-.077-.024-.132-.136-.167zm.614.104c-.111 0-.166.039-.166.115 0 .09.058.128.177.115.11 0 .166-.039.166-.115 0-.09-.059-.129-.177-.115zm.594-.083c-.11.02-.16.073-.146.156.014.084.077.112.188.084.111-.028.16-.077.146-.146-.014-.077-.077-.108-.188-.094zm9.353-11.99a2.89 2.89 0 0 0-2.12-.88H5a2.89 2.89 0 0 0-2.12.88A2.89 2.89 0 0 0 2 4.015V14.02c0 .826.293 1.533.88 2.12a2.89 2.89 0 0 0 2.121.88h2.335c.152 0 .267-.005.343-.015a.404.404 0 0 0 .23-.135c.076-.08.114-.197.114-.35l-.005-.708c-.003-.452-.005-.81-.005-1.074l-.24.042a3.05 3.05 0 0 1-.578.037 4.43 4.43 0 0 1-.724-.073 1.62 1.62 0 0 1-.699-.313 1.32 1.32 0 0 1-.458-.64l-.104-.24a2.611 2.611 0 0 0-.329-.532c-.149-.194-.3-.326-.453-.396l-.073-.052a.775.775 0 0 1-.135-.125.57.57 0 0 1-.094-.146c-.021-.048-.004-.089.052-.12.055-.031.156-.047.302-.047l.209.031c.139.028.31.112.515.25.205.14.374.32.506.542.16.285.352.502.578.652.226.15.454.224.683.224.23 0 .427-.018.594-.052a2.07 2.07 0 0 0 .469-.156c.062-.466.232-.824.51-1.074a7.117 7.117 0 0 1-1.068-.188 4.263 4.263 0 0 1-.98-.406 2.807 2.807 0 0 1-.838-.698c-.223-.278-.405-.643-.547-1.094-.143-.452-.214-.973-.214-1.564 0-.84.274-1.556.823-2.146-.257-.632-.233-1.341.073-2.126.202-.063.5-.016.896.14.396.157.687.29.87.402.185.11.332.205.444.28a7.4 7.4 0 0 1 2-.27 7.4 7.4 0 0 1 2.001.27l.396-.25c.271-.166.59-.319.96-.458.367-.139.649-.177.843-.114.313.785.34 1.494.084 2.126.548.59.823 1.306.823 2.146 0 .591-.071 1.114-.214 1.569-.142.455-.326.82-.552 1.094a2.917 2.917 0 0 1-.844.693 4.267 4.267 0 0 1-.98.406 7.117 7.117 0 0 1-1.068.188c.361.313.542.806.542 1.48v2.49a.67.67 0 0 0 .052.287c.035.073.09.123.167.151a.92.92 0 0 0 .203.052c.059.007.144.01.255.01h2.335c.826 0 1.533-.293 2.12-.88.587-.587.88-1.294.88-2.12V4.015a2.89 2.89 0 0 0-.88-2.12z"/></svg></svg>