<svg width="14" height="14" xmlns="http://www.w3.org/2000/svg" xmlns:xlink="http://www.w3.org/1999/xlink" xmlns:svgjs="http://svgjs.com/svgjs" viewBox="0.022 0 13.955 14" fill="#efefef"><svg xmlns="http://www.w3.org/2000/svg" width="14" height="14" viewBox="2.002 1.987 12.989 13.031"><path paint-order="stroke fill markers" fill-rule="evenodd" d="M14.983 2.483a.555.555 0 0 0-.17-.32.547.547 0 0 0-.416-.176.554.554 0 0 0-.267.065L2.323 7.976a.558.558 0 0 0-.268.277.601.601 0 0 0-.037.389.58.58 0 0 0 .572.453h5.313v5.331a.584.584 0 0 0 .452.574.771.771 0 0 0 .139.018.541.541 0 0 0 .526-.324l5.903-11.846a.564.564 0 0 0 .06-.365z"/></svg></svg>