<svg width="12" height="12" xmlns="http://www.w3.org/2000/svg" xmlns:xlink="http://www.w3.org/1999/xlink" xmlns:svgjs="http://svgjs.com/svgjs" fill="#efefef"><svg xmlns="http://www.w3.org/2000/svg" width="12" height="12" viewBox="2 1.01 10.99 10.989"><path paint-order="stroke fill markers" fill-rule="evenodd" d="M12.966 9.526c-.031-.094-.229-.232-.593-.414a19.77 19.77 0 0 0-.422-.234c-.182-.099-.347-.19-.495-.273a15.175 15.175 0 0 1-.418-.242c-.02-.016-.086-.061-.195-.137a2.225 2.225 0 0 0-.277-.168.512.512 0 0 0-.222-.054c-.105 0-.235.074-.39.222a3.8 3.8 0 0 0-.43.484c-.13.174-.268.336-.414.484-.145.148-.265.222-.359.222a.522.522 0 0 1-.175-.039 1.66 1.66 0 0 1-.16-.066 2.832 2.832 0 0 1-.188-.11 4.826 4.826 0 0 0-.148-.089 8.185 8.185 0 0 1-1.834-1.358A8.186 8.186 0 0 1 4.888 5.92a4.938 4.938 0 0 0-.09-.149 2.864 2.864 0 0 1-.11-.187 1.68 1.68 0 0 1-.066-.16.526.526 0 0 1-.039-.175c0-.094.075-.214.223-.36.148-.145.31-.283.484-.413a3.79 3.79 0 0 0 .484-.43c.148-.156.222-.286.222-.39a.511.511 0 0 0-.054-.222 2.221 2.221 0 0 0-.168-.277c-.076-.11-.121-.175-.137-.196-.078-.13-.159-.269-.242-.417a38.462 38.462 0 0 1-.273-.496 19.597 19.597 0 0 0-.234-.421c-.182-.364-.32-.562-.414-.593a.438.438 0 0 0-.164-.024c-.14 0-.324.026-.55.078a3.098 3.098 0 0 0-.535.164c-.26.11-.536.427-.827.952-.265.49-.398.974-.398 1.452a2.995 2.995 0 0 0 .125.859c.047.166.084.29.113.37.029.081.082.226.16.434s.125.335.14.382c.183.51.399.965.648 1.366.411.666.972 1.354 1.682 2.065.71.71 1.399 1.27 2.065 1.681.4.25.856.466 1.366.648.047.016.174.063.382.14.208.079.353.132.433.16.08.03.204.067.371.114s.316.08.449.097c.132.019.27.028.41.028.478 0 .962-.133 1.451-.398.526-.292.843-.567.953-.827.057-.13.111-.309.163-.535.052-.227.079-.41.079-.55a.436.436 0 0 0-.024-.164z"/></svg></svg>