<svg width="17" height="17" xmlns="http://www.w3.org/2000/svg" xmlns:xlink="http://www.w3.org/1999/xlink" xmlns:svgjs="http://svgjs.com/svgjs" fill="#fff"><svg xmlns="http://www.w3.org/2000/svg" width="17" height="17" viewBox="2 1.986 16.007 16.007"><path paint-order="stroke fill markers" fill-rule="evenodd" d="M14.245 8.145c.007.062.01.156.01.281a6.28 6.28 0 0 1-1.037 3.445 6.571 6.571 0 0 1-1.255 1.427 5.63 5.63 0 0 1-1.751.99c-.681.247-1.41.37-2.189.37a6.136 6.136 0 0 1-3.355-.98c.167.022.34.032.52.032a4.326 4.326 0 0 0 2.72-.938 2.078 2.078 0 0 1-1.265-.438 2.225 2.225 0 0 1-.777-1.084c.18.028.316.042.407.042.152 0 .33-.027.531-.083a2.189 2.189 0 0 1-1.282-.756 2.08 2.08 0 0 1-.52-1.391v-.02c.367.173.715.263 1.041.27-.632-.424-.948-1.032-.948-1.824 0-.389.1-.757.302-1.104a6.198 6.198 0 0 0 2.001 1.615 6.19 6.19 0 0 0 2.522.677 1.996 1.996 0 0 1-.052-.5c0-.604.214-1.12.64-1.547.428-.428.944-.641 1.548-.641.64 0 1.171.23 1.595.687.48-.09.945-.267 1.396-.531a2.126 2.126 0 0 1-.969 1.22c.452-.063.872-.181 1.261-.355a4.253 4.253 0 0 1-1.094 1.136zm2.881-5.279a2.891 2.891 0 0 0-2.12-.88H5a2.89 2.89 0 0 0-2.12.88A2.89 2.89 0 0 0 2 4.987v10.005c0 .826.293 1.533.88 2.12a2.89 2.89 0 0 0 2.121.88h10.005a2.89 2.89 0 0 0 2.12-.88 2.89 2.89 0 0 0 .88-2.12V4.987c0-.826-.293-1.533-.88-2.12z"/></svg></svg>