<svg width="11" height="14" xmlns="http://www.w3.org/2000/svg" xmlns:xlink="http://www.w3.org/1999/xlink" xmlns:svgjs="http://svgjs.com/svgjs" viewBox="0.121 0 10.758 14" fill="#efefef"><svg xmlns="http://www.w3.org/2000/svg" width="11" height="14" viewBox="2 1.994 9.994 13.006"><path paint-order="stroke fill markers" fill-rule="evenodd" d="M4.776 8.497v-2.71c0-.598.217-1.109.65-1.532a2.166 2.166 0 0 1 1.571-.635c.613 0 1.136.212 1.57.635.434.423.65.934.65 1.533 0 .146.056.273.166.38.11.108.24.161.39.161h.555a.54.54 0 0 0 .39-.16.514.514 0 0 0 .166-.381c0-1.045-.38-1.938-1.141-2.68-.76-.743-1.676-1.114-2.746-1.114s-1.985.371-2.746 1.114c-.76.742-1.14 1.635-1.14 2.68v2.709h-.278a.813.813 0 0 0-.59.237A.774.774 0 0 0 2 9.31v4.877c0 .226.08.418.243.576a.812.812 0 0 0 .59.237h8.328a.813.813 0 0 0 .59-.237.774.774 0 0 0 .243-.576V9.31a.774.774 0 0 0-.243-.576.814.814 0 0 0-.59-.237H4.776z"/></svg></svg>