<svg width="23" height="17" xmlns="http://www.w3.org/2000/svg" xmlns:xlink="http://www.w3.org/1999/xlink" xmlns:svgjs="http://svgjs.com/svgjs" viewBox="0 0.128 23 16.745" fill="#fff"><svg xmlns="http://www.w3.org/2000/svg" width="23" height="17" viewBox="2 1.983 22 16.017"><path paint-order="stroke fill markers" fill-rule="evenodd" d="M17.346 10.667l-6.286 4.004a.69.69 0 0 1-.417.126.835.835 0 0 1-.38-.1.747.747 0 0 1-.406-.701V5.987c0-.317.135-.55.405-.7.278-.15.544-.142.798.025l6.286 4.004c.245.142.368.367.368.676 0 .308-.123.534-.368.675zm6.537-4.26a15.79 15.79 0 0 0-.264-1.846 2.926 2.926 0 0 0-.853-1.54 2.597 2.597 0 0 0-1.528-.725c-1.817-.208-4.563-.313-8.238-.313s-6.42.105-8.238.313a2.569 2.569 0 0 0-1.522.726c-.434.417-.716.93-.847 1.539a14.085 14.085 0 0 0-.276 1.846 25.005 25.005 0 0 0-.105 1.708C2.004 8.565 2 9.19 2 9.992c0 .8.004 1.426.012 1.877a25 25 0 0 0 .105 1.707c.061.689.149 1.304.264 1.846.13.61.415 1.122.853 1.54.437.416.947.658 1.528.725C6.58 17.896 9.325 18 13 18s6.42-.104 8.238-.313a2.568 2.568 0 0 0 1.522-.726c.434-.417.716-.93.847-1.539.123-.542.215-1.157.276-1.846.062-.688.096-1.257.105-1.707.008-.45.012-1.077.012-1.877 0-.801-.004-1.427-.012-1.877a25.08 25.08 0 0 0-.105-1.708z"/></svg></svg>