<svg width="20" height="18" xmlns="http://www.w3.org/2000/svg" xmlns:xlink="http://www.w3.org/1999/xlink" xmlns:svgjs="http://svgjs.com/svgjs" viewBox="0.432 0 19.136 18" fill="#fff" opacity=".651"><svg xmlns="http://www.w3.org/2000/svg" width="20" height="18" viewBox="1.958 1.994 18.072 17"><path paint-order="stroke fill markers" fill-rule="evenodd" d="M19.85 9.808l-.906-.88a.582.582 0 0 0-.833 0l-7.117 6.916-7.117-6.916a.582.582 0 0 0-.833 0l-.905.88a.549.549 0 0 0-.181.404c0 .153.06.288.18.405l8.44 8.2a.58.58 0 0 0 .832 0l8.44-8.2a.55.55 0 0 0 .18-.405.55.55 0 0 0-.18-.404zm0-6.758l-.906-.88a.582.582 0 0 0-.833 0l-7.117 6.916L3.877 2.17a.582.582 0 0 0-.833 0l-.905.88a.55.55 0 0 0-.181.405c0 .152.06.287.18.404l8.44 8.201a.58.58 0 0 0 .832 0l8.44-8.2a.55.55 0 0 0 .18-.405.55.55 0 0 0-.18-.405z"/></svg></svg>