<svg width="10" height="18" xmlns="http://www.w3.org/2000/svg" xmlns:xlink="http://www.w3.org/1999/xlink" xmlns:svgjs="http://svgjs.com/svgjs" viewBox="0.247 0 9.506 18" fill="#5ac8fb"><svg xmlns="http://www.w3.org/2000/svg" width="10" height="18" viewBox="1.014 1.012 8.972 16.988"><path paint-order="stroke fill markers" fill-rule="evenodd" d="M9.832 2.034l-.771-.851a.468.468 0 0 0-.355-.17.467.467 0 0 0-.354.17L1.168 9.115a.565.565 0 0 0-.154.392c0 .147.051.278.154.391l7.184 7.933c.102.113.22.17.354.17a.467.467 0 0 0 .355-.17l.77-.851a.566.566 0 0 0 .155-.392.567.567 0 0 0-.154-.391l-6.059-6.69 6.059-6.69a.567.567 0 0 0 .154-.392.567.567 0 0 0-.154-.391z"/></svg></svg>