<svg width="10" height="18" xmlns="http://www.w3.org/2000/svg" xmlns:xlink="http://www.w3.org/1999/xlink" xmlns:svgjs="http://svgjs.com/svgjs" viewBox="0.247 0 9.506 18" fill="#5ac8fb"><svg xmlns="http://www.w3.org/2000/svg" width="10" height="18" viewBox="1.014 1.012 8.972 16.988"><path paint-order="stroke fill markers" fill-rule="evenodd" d="M1.168 2.034l.771-.851a.468.468 0 0 1 .355-.17c.133 0 .251.056.354.17l7.184 7.932a.565.565 0 0 1 .154.392.565.565 0 0 1-.154.391l-7.184 7.933a.467.467 0 0 1-.354.17.467.467 0 0 1-.355-.17l-.77-.851a.566.566 0 0 1-.155-.392c0-.147.052-.278.154-.391l6.058-6.69-6.058-6.69a.567.567 0 0 1-.154-.392c0-.147.052-.278.154-.391z"/></svg></svg>