<svg width="38" height="33" xmlns="http://www.w3.org/2000/svg" xmlns:xlink="http://www.w3.org/1999/xlink" xmlns:svgjs="http://svgjs.com/svgjs" viewBox="0 0.097 38 32.806" fill="#5ac8fb"><svg xmlns="http://www.w3.org/2000/svg" width="38" height="33" viewBox="2 1.028 37 31.942"><path paint-order="stroke fill markers" fill-rule="evenodd" d="M36.357 3.687c0-.72-.262-1.343-.785-1.87-.523-.526-1.142-.79-1.858-.79-6.346 5.32-12.512 7.98-18.5 7.98h-9.91c-.909 0-1.687.326-2.334.976A3.211 3.211 0 0 0 2 12.331v3.99c0 .914.323 1.697.97 2.348.647.651 1.425.977 2.334.977h2.519a10.828 10.828 0 0 0-.455 2.296c-.069.783-.093 1.465-.072 2.047.02.581.124 1.281.31 2.098.185.818.344 1.434.475 1.85.13.415.35 1.07.66 1.963.31.894.513 1.5.61 1.819.632.581 1.54.966 2.725 1.153a7.674 7.674 0 0 0 3.479-.24c1.136-.346 1.903-.92 2.302-1.724a34.219 34.219 0 0 1-1.27-1.05 8.946 8.946 0 0 1-.99-1.038c-.338-.409-.569-.79-.692-1.143-.124-.353-.166-.755-.124-1.205.04-.45.199-.904.475-1.361a2.828 2.828 0 0 1-.826-1.922c-.028-.741.185-1.437.64-2.089.454-.65 1.08-1.108 1.879-1.371 5.437.457 11.025 3.09 16.765 7.896.716 0 1.335-.263 1.858-.79.523-.526.785-1.15.785-1.87v-7.98c.73 0 1.352-.259 1.869-.778a2.57 2.57 0 0 0 .774-1.88 2.57 2.57 0 0 0-.774-1.881 2.538 2.538 0 0 0-1.869-.78V3.687zm-18.5 13.445v-5.61c5.148-.569 10.434-2.945 15.857-7.128v19.823c-5.382-4.142-10.668-6.504-15.857-7.085z"/></svg></svg>