<svg width="29" height="28" xmlns="http://www.w3.org/2000/svg" xmlns:xlink="http://www.w3.org/1999/xlink" xmlns:svgjs="http://svgjs.com/svgjs" viewBox="0.003 0 28.995 28" fill="#5ac8fb"><svg xmlns="http://www.w3.org/2000/svg" width="29" height="28" viewBox="2 1.982 27.991 27.031"><path paint-order="stroke fill markers" fill-rule="evenodd" d="M11.33 19.42c-1.03 0-1.91-.385-2.638-1.152-.73-.768-1.094-1.694-1.094-2.778 0-1.085.365-2.011 1.094-2.779.729-.767 1.608-1.15 2.638-1.15 1.03 0 1.91.383 2.64 1.15.728.768 1.092 1.694 1.092 2.779 0 1.084-.364 2.01-1.093 2.778-.729.767-1.609 1.151-2.639 1.151zm14.382 5.318a1.754 1.754 0 0 1-1.32.575c-.514 0-.954-.191-1.318-.575a1.945 1.945 0 0 1-.547-1.39c0-.531.184-.992.554-1.38.37-.39.806-.584 1.312-.584.505 0 .942.195 1.312.583.37.39.554.85.554 1.382 0 .542-.182 1.005-.547 1.389zm0-15.718a1.753 1.753 0 0 1-1.32.575c-.514 0-.954-.192-1.318-.575a1.944 1.944 0 0 1-.547-1.39c0-.531.184-.992.554-1.38.37-.39.806-.584 1.312-.584.505 0 .942.194 1.312.583.37.39.554.85.554 1.382 0 .542-.182 1.005-.547 1.389zm-5.153 4.773a.423.423 0 0 0-.248-.16l-2.216-.354a10.85 10.85 0 0 0-.496-1.258c.146-.225.365-.532.656-.921.292-.39.496-.666.613-.83a.533.533 0 0 0 .102-.291c0-.276-.7-1.095-2.1-2.456a.47.47 0 0 0-.306-.123.415.415 0 0 0-.291.108l-1.72 1.366a6.242 6.242 0 0 0-1.094-.476l-.336-2.349a.401.401 0 0 0-.145-.268.432.432 0 0 0-.292-.115H9.975c-.224 0-.37.123-.438.368-.116.47-.228 1.259-.335 2.364a6.899 6.899 0 0 0-1.123.491L6.403 7.508a.51.51 0 0 0-.306-.108c-.185 0-.569.302-1.152.906-.583.604-.982 1.06-1.196 1.366a.464.464 0 0 0-.102.307c0 .092.034.195.102.307a28.87 28.87 0 0 1 1.312 1.765c-.204.42-.36.809-.466 1.167l-2.26.368c-.087.01-.165.064-.233.161a.517.517 0 0 0-.102.3v2.84c0 .112.034.212.102.299.068.087.15.136.248.145l2.216.369c.116.39.286.809.51 1.259-.156.225-.384.537-.685.936-.301.4-.5.67-.598.814a.532.532 0 0 0-.102.291c0 .276.7 1.095 2.1 2.456a.467.467 0 0 0 .306.123c.126 0 .223-.036.291-.108l1.72-1.366c.399.215.763.374 1.094.476l.335 2.349a.4.4 0 0 0 .146.268.431.431 0 0 0 .292.115h2.711c.224 0 .37-.122.437-.368.117-.48.229-1.274.336-2.379a6.415 6.415 0 0 0 1.122-.476l1.677 1.381c.097.072.199.108.306.108.185 0 .566-.304 1.145-.913.578-.609.979-1.067 1.202-1.374a.406.406 0 0 0 .102-.292.553.553 0 0 0-.102-.307 28.525 28.525 0 0 1-1.312-1.765c.204-.42.36-.808.467-1.167l2.26-.368c.087-.01.165-.064.233-.161a.518.518 0 0 0 .102-.3v-2.84a.474.474 0 0 0-.102-.299zm7.26 8.005a4.362 4.362 0 0 0-.437-.798c.495-1.156.743-1.862.743-2.118 0-.04-.02-.077-.058-.107-1.167-.717-1.77-1.075-1.808-1.075l-.088.03c-.398.42-.845.993-1.34 1.72-.195-.02-.341-.03-.438-.03-.097 0-.243.01-.437.03-.137-.215-.39-.56-.759-1.036s-.593-.714-.67-.714c-.02 0-.166.082-.438.246-.272.163-.559.337-.86.521-.301.185-.471.287-.51.308-.039.03-.058.066-.058.107 0 .256.248.962.743 2.118a4.335 4.335 0 0 0-.437.798c-1.448.154-2.172.313-2.172.476v2.15c0 .163.724.322 2.172.475.117.276.262.542.437.798-.495 1.156-.743 1.862-.743 2.119 0 .04.02.076.058.107 1.186.726 1.788 1.09 1.808 1.09.077 0 .301-.24.67-.722.37-.48.622-.829.759-1.044.194.021.34.031.437.031.097 0 .243-.01.437-.03.136.214.389.562.758 1.043.37.481.593.722.671.722.02 0 .622-.364 1.808-1.09.038-.03.058-.067.058-.107 0-.257-.248-.963-.743-2.119a4.54 4.54 0 0 0 .437-.798c1.448-.153 2.172-.312 2.172-.476v-2.149c0-.163-.724-.322-2.172-.476zm0-15.718a4.362 4.362 0 0 0-.437-.798c.495-1.156.743-1.862.743-2.118 0-.04-.02-.077-.058-.108-1.167-.716-1.77-1.074-1.808-1.074l-.088.03c-.398.42-.845.993-1.34 1.72-.195-.02-.341-.031-.438-.031-.097 0-.243.01-.437.03-.137-.214-.39-.56-.759-1.035-.369-.476-.593-.714-.67-.714-.02 0-.166.082-.438.245-.272.164-.559.338-.86.522-.301.185-.471.287-.51.307-.039.031-.058.067-.058.108 0 .256.248.962.743 2.118a4.335 4.335 0 0 0-.437.798c-1.448.154-2.172.312-2.172.476v2.15c0 .163.724.321 2.172.475.117.276.262.542.437.798-.495 1.157-.743 1.863-.743 2.118 0 .041.02.077.058.108 1.186.727 1.788 1.09 1.808 1.09.077 0 .301-.24.67-.722.37-.48.622-.829.759-1.044.194.02.34.031.437.031.097 0 .243-.01.437-.03.136.214.389.562.758 1.043.37.481.593.722.671.722.02 0 .622-.363 1.808-1.09.038-.031.058-.067.058-.108 0-.255-.248-.961-.743-2.118.174-.256.32-.522.437-.798 1.448-.154 2.172-.312 2.172-.476V6.556c0-.164-.724-.322-2.172-.476z"/></svg></svg>