<svg width="16" height="29" xmlns="http://www.w3.org/2000/svg" xmlns:xlink="http://www.w3.org/1999/xlink" xmlns:svgjs="http://svgjs.com/svgjs" viewBox="0.251 0 15.497 29" fill="#fff"><svg xmlns="http://www.w3.org/2000/svg" width="16" height="29" viewBox="1.023 1.02 14.953 27.981"><path paint-order="stroke fill markers" fill-rule="evenodd" d="M15.72 2.703L14.434 1.3c-.172-.187-.369-.28-.591-.28-.223 0-.42.093-.591.28L1.28 14.366a.927.927 0 0 0-.257.645c0 .243.086.458.257.645L13.253 28.72c.171.188.368.28.591.28.222 0 .42-.092.59-.28l1.285-1.401a.927.927 0 0 0 .257-.645.928.928 0 0 0-.257-.645L5.622 15.01 15.72 3.993a.927.927 0 0 0 .257-.645.928.928 0 0 0-.257-.645z"/></svg></svg>