<svg width="16" height="29" xmlns="http://www.w3.org/2000/svg" xmlns:xlink="http://www.w3.org/1999/xlink" xmlns:svgjs="http://svgjs.com/svgjs" viewBox="0.251 0 15.497 29" fill="#fff"><svg xmlns="http://www.w3.org/2000/svg" width="16" height="29" viewBox="1.024 1.02 14.953 27.981"><path paint-order="stroke fill markers" fill-rule="evenodd" d="M1.28 2.703L2.565 1.3c.171-.187.369-.28.59-.28.224 0 .42.093.592.28l11.972 13.065a.927.927 0 0 1 .257.645.925.925 0 0 1-.257.645L3.747 28.72c-.171.188-.368.28-.591.28-.222 0-.42-.092-.59-.28L1.28 27.32a.927.927 0 0 1-.256-.645c0-.243.085-.458.256-.645L11.377 15.01 1.28 3.993a.927.927 0 0 1-.256-.645c0-.243.085-.458.256-.645z"/></svg></svg>