<svg width="14" height="26" xmlns="http://www.w3.org/2000/svg" xmlns:xlink="http://www.w3.org/1999/xlink" xmlns:svgjs="http://svgjs.com/svgjs" viewBox="0.236 0 13.528 26" fill="#fff"><svg xmlns="http://www.w3.org/2000/svg" width="14" height="26" viewBox="1.999 1.998 13.004 24.992"><path paint-order="stroke fill markers" fill-rule="evenodd" d="M14.347 8.351a.769.769 0 0 0-.174.03L8.427 9.853 10.908 2.9c.049-.1.073-.19.073-.27a.605.605 0 0 0-.189-.443.633.633 0 0 0-.464-.188H5.569a.645.645 0 0 0-.406.135.644.644 0 0 0-.232.346l-2.917 12.39c-.048.24.015.436.19.586a.66.66 0 0 0 .449.165.757.757 0 0 0 .174-.014l5.89-1.518L5.86 26.224a.587.587 0 0 0 .066.45c.082.14.205.236.37.286.096.02.164.03.203.03.28 0 .483-.125.61-.376l7.834-17.377a.579.579 0 0 0-.102-.66.67.67 0 0 0-.493-.226z"/></svg></svg>