<svg width="24" height="27" xmlns="http://www.w3.org/2000/svg" xmlns:xlink="http://www.w3.org/1999/xlink" xmlns:svgjs="http://svgjs.com/svgjs" viewBox="0.055 0 23.89 27" fill="#fff"><svg xmlns="http://www.w3.org/2000/svg" width="24" height="27" viewBox="2 1.982 23.012 26.008"><path paint-order="stroke fill markers" fill-rule="evenodd" d="M9.437 6.92c0-.166.06-.31.18-.43a.6.6 0 0 1 .44-.18c.175 0 .325.061.45.18.125.12.188.264.188.43 0 .167-.063.31-.188.43a.628.628 0 0 1-.45.18.6.6 0 0 1-.44-.18.585.585 0 0 1-.18-.43zm6.88 0c0-.166.063-.31.188-.43a.628.628 0 0 1 .45-.18c.174 0 .321.061.441.18.12.12.18.264.18.43 0 .167-.06.31-.18.43a.6.6 0 0 1-.441.18.627.627 0 0 1-.45-.18.573.573 0 0 1-.188-.43zM2.49 10.876C2.163 11.188 2 11.563 2 12v6.721c0 .448.163.828.49 1.141.327.313.725.469 1.193.469.469 0 .864-.156 1.185-.469.322-.313.483-.693.483-1.141v-6.72c0-.438-.164-.813-.49-1.126a1.642 1.642 0 0 0-1.178-.469c-.468 0-.866.156-1.193.469zm3.514-.172v10.41c0 .479.174.885.523 1.218.349.334.774.5 1.275.5h1.21l.016 3.549c0 .447.163.828.49 1.14.327.313.72.47 1.177.47.468 0 .866-.157 1.193-.47a1.52 1.52 0 0 0 .49-1.14v-3.548h2.256v3.548c0 .447.163.828.49 1.14.327.313.725.47 1.193.47.469 0 .867-.157 1.193-.47a1.52 1.52 0 0 0 .49-1.14v-3.548h1.227c.49 0 .91-.167 1.258-.5.349-.334.523-.74.523-1.22v-10.41H6.004zm12.373-8.378c.076-.135.049-.24-.082-.312-.142-.063-.25-.031-.327.094L16.791 4.17a8.352 8.352 0 0 0-3.285-.657c-1.155 0-2.25.22-3.285.657L9.044 2.107c-.076-.125-.185-.157-.327-.094-.13.073-.158.177-.081.312l1.16 2.048c-1.177.573-2.114 1.373-2.811 2.4a5.87 5.87 0 0 0-1.046 3.367h15.118a5.871 5.871 0 0 0-1.046-3.368c-.697-1.026-1.629-1.826-2.795-2.399l1.16-2.048zm6.145 8.542a1.678 1.678 0 0 0-1.193-.461c-.458 0-.85.154-1.177.461-.327.307-.49.685-.49 1.133v6.721c0 .448.163.828.49 1.141.327.313.72.469 1.177.469.468 0 .866-.156 1.193-.469a1.52 1.52 0 0 0 .49-1.141v-6.72c0-.449-.163-.827-.49-1.134z"/></svg></svg>