<svg width="40" height="22" xmlns="http://www.w3.org/2000/svg" xmlns:xlink="http://www.w3.org/1999/xlink" xmlns:svgjs="http://svgjs.com/svgjs" viewBox="0 0.213 40 21.573" fill="#fff"><svg xmlns="http://www.w3.org/2000/svg" width="40" height="22" viewBox="2 1.978 38.977 21.022"><path paint-order="stroke fill markers" fill-rule="evenodd" d="M13.013 19.707c-.992.794-2.137 1.19-3.434 1.19-1.489 0-2.763-.514-3.823-1.543-1.06-1.03-1.59-2.266-1.59-3.712 0-1.445.53-2.682 1.59-3.711 1.06-1.03 2.334-1.544 3.823-1.544.812 0 1.584.17 2.318.509l-3.18 4.122c-.272.35-.308.717-.11 1.1.196.384.52.575.972.575h5.312c-.26 1.216-.886 2.22-1.878 3.014zm.61-7.547c.642.69 1.065 1.5 1.268 2.431h-3.147l1.878-2.43zm3.45 2.431c-.237-1.631-.947-3.01-2.131-4.139l1.674-2.167h8.12l-4.871 6.306h-2.792zm16.325 6.307c-1.488 0-2.763-.515-3.823-1.544-1.06-1.03-1.59-2.266-1.59-3.712 0-1.423.524-2.655 1.573-3.695l2.944 4.27c.203.318.501.476.896.476.237 0 .44-.06.61-.18a.963.963 0 0 0 .456-.657c.057-.285 0-.553-.169-.805l-2.944-4.27a5.705 5.705 0 0 1 2.047-.394c1.49 0 2.763.515 3.824 1.544 1.06 1.029 1.59 2.266 1.59 3.711 0 1.446-.53 2.683-1.59 3.712-1.06 1.03-2.335 1.544-3.824 1.544zm0-12.613c-1.139 0-2.222.24-3.248.722l-4.517-6.57a1.06 1.06 0 0 0-.896-.459h-4.331c-.293 0-.547.104-.761.312a.996.996 0 0 0-.322.74c0 .284.107.53.322.738.214.208.468.312.761.312h3.756L25.6 6.182h-7.36V4.08h-6.496c-.293 0-.547.104-.761.312a.996.996 0 0 0-.321.74c0 .284.107.53.321.738.214.208.468.312.761.312h3.79l-2.318 3.006a7.672 7.672 0 0 0-3.637-.903c-2.087 0-3.871.72-5.354 2.16C2.74 11.884 2 13.616 2 15.641c0 2.026.741 3.759 2.225 5.198C5.708 22.28 7.492 23 9.579 23c1.895 0 3.553-.602 4.974-1.807 1.42-1.204 2.26-2.704 2.52-4.5h3.333c.372 0 .66-.142.863-.427l5.972-7.702 1.1 1.61a7.422 7.422 0 0 0-1.853 2.455 6.993 6.993 0 0 0-.669 3.013c0 2.026.742 3.759 2.225 5.198 1.483 1.44 3.268 2.16 5.354 2.16 2.087 0 3.872-.72 5.355-2.16 1.483-1.44 2.224-3.172 2.224-5.198 0-2.025-.741-3.758-2.224-5.198-1.483-1.44-3.268-2.16-5.355-2.16z"/></svg></svg>