<svg width="26" height="22" xmlns="http://www.w3.org/2000/svg" xmlns:xlink="http://www.w3.org/1999/xlink" xmlns:svgjs="http://svgjs.com/svgjs" viewBox="0 0.075 26 21.849" fill="#fff"><svg xmlns="http://www.w3.org/2000/svg" width="26" height="22" viewBox="2 1.018 25 21.009"><path paint-order="stroke fill markers" fill-rule="evenodd" d="M14.5 11.085c-.372 0-.688.128-.949.383-.26.255-.39.565-.39.93a.42.42 0 0 1-.126.315.438.438 0 0 1-.32.123.438.438 0 0 1-.322-.123.42.42 0 0 1-.125-.315c0-.602.218-1.117.655-1.546a2.171 2.171 0 0 1 1.577-.642c.13 0 .237.04.32.123a.421.421 0 0 1 .126.314.42.42 0 0 1-.125.315.44.44 0 0 1-.321.123zm0-2.161c-.986 0-1.828.342-2.525 1.026-.698.684-1.046 1.509-1.046 2.476 0 .966.348 1.791 1.046 2.475.697.684 1.539 1.026 2.525 1.026s1.828-.342 2.525-1.026c.698-.684 1.046-1.509 1.046-2.475 0-.967-.348-1.792-1.046-2.476-.697-.684-1.54-1.026-2.525-1.026zM3.786 18.526h21.428v1.75H3.786v-1.75zm10.714-.848c-1.479 0-2.741-.513-3.788-1.54-1.046-1.025-1.57-2.263-1.57-3.712 0-1.45.524-2.688 1.57-3.714 1.047-1.026 2.31-1.539 3.788-1.539 1.479 0 2.741.513 3.788 1.539 1.046 1.026 1.57 2.263 1.57 3.714 0 1.45-.524 2.687-1.57 3.713-1.047 1.026-2.31 1.539-3.788 1.539zM5.57 1.893h5.358v1.751H5.57v-1.75zM3.786 4.52h8.984l.893-1.751h11.551V6.27H3.786V4.52zm22.69-2.989a1.738 1.738 0 0 0-1.262-.513H3.786c-.493 0-.914.171-1.263.513A1.67 1.67 0 0 0 2 2.77v17.507c0 .484.174.896.523 1.238.349.342.77.513 1.263.513h21.428c.493 0 .914-.17 1.263-.513A1.67 1.67 0 0 0 27 20.276V2.77a1.67 1.67 0 0 0-.523-1.238z"/></svg></svg>